<svg width="500" height="500" viewBox="0 0 500 500" fill="none" xmlns="http://www.w3.org/2000/svg">
<circle cx="250" cy="250" r="250" fill="#4AB8F5"/>
<path d="M335.458 187C332.333 177.436 328.214 168.866 323.1 161.29C318.081 153.619 312.068 147.085 305.06 141.688C298.148 136.29 290.288 132.17 281.481 129.33C272.674 126.489 263.015 125.068 252.504 125.068C235.269 125.068 219.596 129.519 205.487 138.42C191.377 147.322 180.155 160.438 171.822 177.767C163.488 195.097 159.322 216.356 159.322 241.545C159.322 266.735 163.536 287.994 171.964 305.324C180.392 322.653 191.803 335.769 206.197 344.67C220.591 353.572 236.784 358.023 254.776 358.023C271.443 358.023 286.121 354.472 298.81 347.369C311.594 340.172 321.538 330.04 328.64 316.972C335.837 303.809 339.435 288.326 339.435 270.523L350.231 272.795H262.731V241.545H373.526V272.795C373.526 296.754 368.413 317.587 358.185 335.295C348.053 353.004 334.038 366.735 316.14 376.489C298.337 386.148 277.882 390.977 254.776 390.977C229.019 390.977 206.386 384.917 186.879 372.795C167.466 360.674 152.314 343.439 141.424 321.091C130.629 298.742 125.231 272.227 125.231 241.545C125.231 218.534 128.308 197.843 134.464 179.472C140.714 161.006 149.521 145.286 160.884 132.312C172.248 119.339 185.695 109.396 201.225 102.483C216.755 95.5701 233.848 92.1136 252.504 92.1136C267.844 92.1136 282.144 94.4337 295.401 99.0739C308.754 103.619 320.638 110.106 331.055 118.534C341.566 126.867 350.326 136.858 357.333 148.506C364.341 160.059 369.17 172.89 371.822 187H335.458Z" fill="white"/>
</svg>
